<?xml version="1.0" encoding="utf-8"?>
<!-- Generator: Adobe Illustrator 16.0.0, SVG Export Plug-In . SVG Version: 6.00 Build 0)  -->
<!DOCTYPE svg PUBLIC "-//W3C//DTD SVG 1.1//EN" "http://www.w3.org/Graphics/SVG/1.1/DTD/svg11.dtd">
<svg version="1.1" id="Layer_1" xmlns="http://www.w3.org/2000/svg" xmlns:xlink="http://www.w3.org/1999/xlink" x="0px" y="0px"
	 width="20px" height="20px" viewBox="0 0 20 20" enable-background="new 0 0 20 20" xml:space="preserve">
<g>
	<path fill="#FFFFFF" d="M10.397,6.152c0,0-0.178-6.272,8.039-5.602v3.542c0,0-2.729-0.163-2.775,2.06h1.665v3.009h-2.547
		c0,0-0.554,4.722-3.172,7.936c0,0-4.095,5.282-10.044,0.186c0,0,7.776-0.925,8.437-8.608L7.583,6.068L10.397,6.152z"/>
	<path fill="#FFFFFF" d="M4.623,17.522c0,0,3.486-0.765,5.001-3.791c0,0,0.187,1.376-0.784,2.21c0,0,1.061-0.189,1.543-0.632
		c0,0-0.676,1.191-2.001,1.688c0,0,1.14,0.151,2.016-0.531C10.397,16.466,7.531,19.767,4.623,17.522z"/>
</g>
<g>
	<path fill="#EF5A2B" d="M10.397,6.152c0,0-0.178-6.272,8.039-5.602v3.542c0,0-2.729-0.163-2.775,2.06h1.665v3.009h-2.547
		c0,0-0.554,4.722-3.172,7.936c0,0-4.095,5.282-10.044,0.186c0,0,7.776-0.925,8.437-8.608L7.583,6.068L10.397,6.152z"/>
	<path fill="#FFFFFF" d="M4.623,17.522c0,0,3.486-0.765,5.001-3.791c0,0,0.187,1.376-0.784,2.21c0,0,1.061-0.189,1.543-0.632
		c0,0-0.676,1.191-2.001,1.688c0,0,1.14,0.151,2.016-0.531C10.397,16.466,7.531,19.767,4.623,17.522z"/>
</g>
</svg>
