<svg xmlns="http://www.w3.org/2000/svg" xmlns:xlink="http://www.w3.org/1999/xlink" version="1.1" x="0px" y="0px" width="64px" height="64px" viewBox="0 0 64 64" enable-background="new 0 0 64 64" xml:space="preserve">
	<style type="text/css">

		.st0{fill:url(#SVGID_1_);}
		.st1{fill:#C6CACC;}
		.st3{fill:url(#SVGID_2_);}
		.st2{fill:#D7D9DB;}

	</style>

	<g id="Layer_1">
		<g>
			<path class='st1' fill="#C6CACC" d="M31.688,1.606c0,0,13.512-1.093,24.219,10.5c0,0,7.748,7.875,7.591,21.002c0,0-0.48,12.396-8.948,20.197    c0,0,3.517-5.908,4.072-10.649c0,0,0.083-1.311-1.038-1.235c0,0-0.957-0.218-1.198,1.602c0,0-3.434,12.396-9.666,16.116    c0,0,5.831-9.917,6.232-15.239c0,0,0.558-1.243-1.197-1.461c0,0-0.72-0.363-1.119,1.388c0,0-1.038,9.551-8.148,17.061    l-1.916,0.584c0,0,6.137-8.021,7.022-17.206c0,0,0.164-1.681-1.513-1.46c0,0-1.036,0.291-0.957,1.821    c0,0-1.52,11.155-7.831,17.795h-1.198c0,0,5.834-8.608,7.189-24.575c0,0,2.239-15.677-6.07-16.334c0,0-4.313-0.802-6.631,6.417    c0,0-1.357,7.732-3.194,10.211c0,0-0.64,1.602-1.838,0.874c0,0-1.999,0-1.599-10.647C23.951,28.367,25.284,12.472,31.688,1.606z"/>
			<path class='st2' fill="#D7D9DB" d="M32.905,62.343c0,0-13.49,1.308-24.415-10.112c0,0-7.899-7.749-7.99-20.876c0,0,0.243-12.402,8.559-20.338    c0,0-3.401,5.964-3.869,10.711c0,0-0.057,1.313,1.061,1.222c0,0,0.962,0.2,1.168-1.624c0,0,3.197-12.448,9.358-16.266    c0,0-5.641,10.008-5.941,15.335c0,0-0.534,1.251,1.228,1.441c0,0,0.725,0.352,1.091-1.404c0,0,0.857-9.568,7.822-17.191    l1.905-0.611c0,0-5.985,8.116-6.693,17.316c0,0-0.135,1.68,1.539,1.435c0,0,1.034-0.308,0.922-1.838c0,0,1.306-11.18,7.489-17.915    l1.198-0.018c0,0-5.665,8.698-6.718,24.684c0,0-1.938,15.71,6.382,16.234c0,0,4.33,0.734,6.507-6.522c0,0,1.212-7.75,3.002-10.257    c0,0,0.607-1.615,1.82-0.905c0,0,1.998-0.03,1.8,10.621C40.129,35.464,39.101,51.377,32.905,62.343z"/>
		</g>
	</g>
	<g id="Layer_2">
		<g>
			<linearGradient xmlns="http://www.w3.org/2000/svg" id="SVGID_1_" x1="100%" y1="100%">
				<stop xmlns="http://www.w3.org/2000/svg" offset="0.271328" stop-color="#254463" stop-opacity="1">
					<animate attributeName="stop-color" values="#254463" dur="2s" repeatCount="indefinite"/>
					<animate attributeName="offset" values=".10;1;" dur="2s" repeatCount="indefinite"/>    
				</stop>
				<stop xmlns="http://www.w3.org/2000/svg" stop-opacity="1" stop-color="#C6CACC" offset="0.271328">
					<animate attributeName="stop-color" values="#C6CACC" dur="2s" repeatCount="indefinite"/>
					<animate attributeName="offset" values=".10;1;" dur="2s" repeatCount="indefinite"/>    
				</stop>
			</linearGradient>
			<linearGradient xmlns="http://www.w3.org/2000/svg" id="SVGID_2_" x1="100%" y1="100%">
				<stop xmlns="http://www.w3.org/2000/svg" offset="0.271328" stop-color="#B71346" stop-opacity="1">
					<animate attributeName="stop-color" values="#B71346" dur="2s" repeatCount="indefinite"/>
					<animate attributeName="offset" values=".10;1;" dur="2s" repeatCount="indefinite"/>    
				</stop>
				<stop xmlns="http://www.w3.org/2000/svg" stop-opacity="1" stop-color="#D7D9DB" offset="0.271328">
					<animate attributeName="stop-color" values="#D7D9DB" dur="2s" repeatCount="indefinite"/>
					<animate attributeName="offset" values=".10;1;" dur="2s" repeatCount="indefinite"/>    
				</stop>
			</linearGradient>
			<path class='st0' fill="#254463" d="M31.688,1.606c0,0,13.512-1.093,24.219,10.5c0,0,7.748,7.875,7.591,21.002c0,0-0.48,12.396-8.948,20.197    c0,0,3.517-5.908,4.072-10.649c0,0,0.083-1.311-1.038-1.235c0,0-0.957-0.218-1.198,1.602c0,0-3.434,12.396-9.666,16.116    c0,0,5.831-9.917,6.232-15.239c0,0,0.558-1.243-1.197-1.461c0,0-0.72-0.363-1.119,1.388c0,0-1.038,9.551-8.148,17.061    l-1.916,0.584c0,0,6.137-8.021,7.022-17.206c0,0,0.164-1.681-1.513-1.46c0,0-1.036,0.291-0.957,1.821    c0,0-1.52,11.155-7.831,17.795h-1.198c0,0,5.834-8.608,7.189-24.575c0,0,2.239-15.677-6.07-16.334c0,0-4.313-0.802-6.631,6.417    c0,0-1.357,7.732-3.194,10.211c0,0-0.64,1.602-1.838,0.874c0,0-1.999,0-1.599-10.647C23.951,28.367,25.284,12.472,31.688,1.606z"/>
			<path class='st3' fill="#B71346" d="M32.905,62.343c0,0-13.49,1.308-24.415-10.112c0,0-7.899-7.749-7.99-20.876c0,0,0.243-12.402,8.559-20.338    c0,0-3.401,5.964-3.869,10.711c0,0-0.057,1.313,1.061,1.222c0,0,0.962,0.2,1.168-1.624c0,0,3.197-12.448,9.358-16.266    c0,0-5.641,10.008-5.941,15.335c0,0-0.534,1.251,1.228,1.441c0,0,0.725,0.352,1.091-1.404c0,0,0.857-9.568,7.822-17.191    l1.905-0.611c0,0-5.985,8.116-6.693,17.316c0,0-0.135,1.68,1.539,1.435c0,0,1.034-0.308,0.922-1.838c0,0,1.306-11.18,7.489-17.915    l1.198-0.018c0,0-5.665,8.698-6.718,24.684c0,0-1.938,15.71,6.382,16.234c0,0,4.33,0.734,6.507-6.522c0,0,1.212-7.75,3.002-10.257    c0,0,0.607-1.615,1.82-0.905c0,0,1.998-0.03,1.8,10.621C40.129,35.464,39.101,51.377,32.905,62.343z"/>
		</g>
	</g>
</svg>