<?xml version="1.0" encoding="utf-8"?>
<!-- Generator: Adobe Illustrator 16.0.0, SVG Export Plug-In . SVG Version: 6.00 Build 0)  -->
<!DOCTYPE svg PUBLIC "-//W3C//DTD SVG 1.1//EN" "http://www.w3.org/Graphics/SVG/1.1/DTD/svg11.dtd">
<svg version="1.1" id="Layer_1" xmlns="http://www.w3.org/2000/svg" xmlns:xlink="http://www.w3.org/1999/xlink" x="0px" y="0px"
	 width="90px" height="40px" viewBox="1.5 -1.5 90 40" enable-background="new 1.5 -1.5 90 40" xml:space="preserve">
<g id="Layer_2" display="none">
	<rect display="inline" fill="#FFFFFF" width="90" height="40"/>
</g>
<g>
	<g>
		<path fill="#F05A28" d="M57.084,24.006c1.438,1.117,3.244,1.675,5.423,1.675c0.778,0,1.453-0.065,2.026-0.199
			c0.574-0.133,1.035-0.258,1.386-0.369c0.351-0.113,0.69-0.24,1.022-0.383c1.396-0.596,2.617-1.56,3.658-2.888
			c1.039-1.333,1.705-2.981,1.998-4.946l0.116-1.659c0-2.294-0.745-3.967-2.231-5.022c-1.486-1.055-3.252-1.582-5.293-1.582
			c-2.451,0-4.611,0.722-6.489,2.166c-1.874,1.443-3.074,3.598-3.601,6.464l-0.086,0.83l-0.09,0.983
			C54.925,21.246,55.645,22.89,57.084,24.006 M62.07,14.587c0.525-1.128,1.391-1.692,2.596-1.692c1.264,0,1.895,0.975,1.895,2.924
			c0,1.394-0.279,2.667-0.846,3.814c-0.564,1.147-1.429,1.724-2.595,1.724c-1.362,0-2.042-0.902-2.042-2.707
			C61.293,17.008,61.622,15.655,62.07,14.587"/>
		<path fill="#F05A28" d="M81.113,18.229l-2.915-2.043c0,0-6.093,12.513-20.47,9.87c-1.414-0.261-2.903-0.66-4.479-1.24
			c-0.622-0.229-1.229-0.43-1.83-0.613c-2.069-0.635-4.015-1.01-5.846-1.184c-1.444-0.138-2.813-0.146-4.113-0.05
			c-3.43,0.259-6.356,1.255-8.808,2.573c-0.494,0.268-0.976,0.541-1.432,0.831c-5.653,3.587-8.323,8.663-8.323,8.663
			s9.428-5.993,30.135-1.59C72.258,37.534,81.113,18.229,81.113,18.229"/>
		<path fill="#F05A28" d="M53.277,35.321c15.447,4.77,22.033-6.473,22.033-6.473C66.455,38.39,53.277,35.321,53.277,35.321"/>
		<polygon fill="#F6921E" points="2.793,8.501 8.714,8.501 9.354,19.058 9.412,19.058 13.466,8.501 18.569,8.501 19.27,19.058 
			23.353,8.501 29.126,8.501 21.544,25.501 15.625,25.501 14.808,15.746 11.047,25.501 5.126,25.501 		"/>
		<polygon fill="#F05A28" points="72.254,8.501 79.021,8.501 80.273,13.049 82.956,8.501 88.5,8.501 83.132,16.727 87.01,25.501 
			80.215,25.501 78.786,20.562 80.143,18.347 77.336,19.935 76.016,16.788 		"/>
		<path fill="#F05A28" d="M53.355,12.772h2.508l0.643-3.711h-2.507c0-0.544,0.076-0.958,0.233-1.241
			c0.25-0.586,0.515-0.949,0.785-1.09c0.272-0.141,0.916-0.212,1.926-0.212l0.701-4.017h-2.742c-0.758,0-1.422,0.052-1.998,0.153
			c-0.572,0.101-1.092,0.255-1.561,0.457c-0.912,0.408-1.632,1.079-2.158,2.015c-0.523,0.936-0.933,2.249-1.224,3.936h-3.5
			c2.199,0.881,2.802,3.711,2.802,3.711l-1.432,8.677c1.846,0.156,3.803,0.533,5.85,1.212L53.355,12.772z"/>
		<path fill="#F6921E" d="M44.495,16.896l0.116-1.659c0-2.294-0.743-3.967-2.231-5.022c-1.486-1.055-3.251-1.582-5.293-1.582
			c-2.447,0-4.612,0.723-6.488,2.166c-1.876,1.443-3.076,3.598-3.601,6.464l-0.088,0.83l-0.087,0.982c0,2.17,0.718,3.813,2.157,4.93
			c0.546,0.426,1.145,0.768,1.797,1.029c1.873-1.167,6.215-3.422,12.028-3.653C43.66,20.132,44.235,18.647,44.495,16.896
			 M37.612,19.633c-0.564,1.147-1.429,1.724-2.595,1.724c-1.361,0-2.042-0.902-2.042-2.707c0.213-1.641,0.544-2.995,0.991-4.063
			c0.525-1.128,1.391-1.692,2.597-1.692c1.264,0,1.895,0.975,1.895,2.924C38.458,17.213,38.176,18.485,37.612,19.633"/>
		<path fill="#FFFFFF" d="M25.491,32.767c0,0,7.451-9.767,18.9-8.744c0,0-4.968,1.137-7.452,2.838c0,0,3.78-0.455,6.588,0.795
			l-2.592,0.568c0,0,1.944,0.568,2.701,1.362l-1.297,0.34c0,0,0.648,0.455,1.297,1.25C43.637,31.176,34.994,29.358,25.491,32.767"/>
	</g>
	<path fill="#2F2A2B" d="M75.5,5.5h1v2h-3v-5h3v2h-1V5.5z M74.5,4.5h1v-1h-1V4.5z M75.5,6.5v-1h-1v1H75.5z"/>
	<path fill="#2F2A2B" d="M78.5,5.5v1h2v1h-3v-5h3v1h-2v1h2v1H78.5z"/>
	<path fill="#2F2A2B" d="M84.5,2.5v1h-1v4h-1v-4h-1v-1H84.5z"/>
	<path fill="#2F2A2B" d="M85.5,7.5v-5h3v5h-1v-2h-1v2H85.5z M86.5,4.5h1v-1h-1V4.5z"/>
</g>
</svg>
