<?xml version="1.0" encoding="utf-8"?>
<!-- Generator: Adobe Illustrator 16.0.0, SVG Export Plug-In . SVG Version: 6.00 Build 0)  -->
<!DOCTYPE svg PUBLIC "-//W3C//DTD SVG 1.1//EN" "http://www.w3.org/Graphics/SVG/1.1/DTD/svg11.dtd">
<svg version="1.1" id="Layer_1" xmlns="http://www.w3.org/2000/svg" xmlns:xlink="http://www.w3.org/1999/xlink" x="0px" y="0px"
	 width="150px" height="50px" viewBox="1.5 -1.5 150 50" enable-background="new 1.5 -1.5 150 50" xml:space="preserve">
<path fill="#FFFFFF" d="M90.879,30.154c1.995,1.553,4.506,2.327,7.53,2.327c1.081,0,2.017-0.092,2.812-0.276
	c0.799-0.186,1.438-0.356,1.925-0.514c0.485-0.157,0.959-0.333,1.419-0.532c1.938-0.827,3.632-2.166,5.078-4.01
	c1.441-1.852,2.371-4.139,2.773-6.867l0.161-2.304c0-3.185-1.03-5.507-3.099-6.973c-2.063-1.464-4.514-2.196-7.345-2.196
	c-3.406,0-6.405,1-9.013,3.007c-2.604,2.002-4.269,4.996-5,8.974l-0.119,1.154l-0.125,1.365
	C87.883,26.322,88.883,28.604,90.879,30.154 M97.805,17.074c0.73-1.565,1.93-2.347,3.604-2.347c1.756,0,2.631,1.354,2.631,4.059
	c0,1.936-0.388,3.703-1.174,5.295c-0.783,1.596-1.984,2.396-3.603,2.396c-1.889,0-2.834-1.252-2.834-3.761
	C96.725,20.438,97.182,18.56,97.805,17.074"/>
<path fill="#FFFFFF" d="M85.596,45.863c21.446,6.623,30.59-8.988,30.59-8.988C103.891,50.126,85.596,45.863,85.596,45.863"/>
<polygon fill="#FFFFFF" points="15.5,8.627 23.721,8.627 24.61,23.285 24.691,23.285 30.319,8.627 37.404,8.627 38.377,23.285 
	44.046,8.627 52.062,8.627 41.535,32.229 33.316,32.229 32.183,18.686 26.96,32.229 18.739,32.229 "/>
<polygon fill="#FFFFFF" points="111.941,8.627 121.339,8.627 123.078,14.94 126.802,8.627 134.5,8.627 127.046,20.048 
	132.432,32.229 122.996,32.229 121.013,25.374 122.896,22.298 118.998,24.502 117.165,20.133 "/>
<path fill="#FFFFFF" d="M85.704,14.557h3.481l0.892-5.155h-3.48c0-0.755,0.104-1.329,0.323-1.722
	c0.348-0.813,0.715-1.316,1.092-1.513c0.377-0.196,1.271-0.295,2.674-0.295l0.975-5.562H87.85c-1.052,0-1.973,0.056-2.772,0.197
	c-0.794,0.14-1.517,0.352-2.168,0.634c-1.265,0.566-2.267,1.498-2.995,2.796c-0.727,1.302-1.295,3.125-1.701,5.465h-4.858
	c3.054,1.223,3.893,5.155,3.893,5.155l-1.991,12.049c2.563,0.215,5.279,0.737,8.125,1.681L85.704,14.557z"/>
<path fill="#FFFFFF" d="M73.401,20.283l0.161-2.304c0-3.185-1.031-5.507-3.098-6.973C68.401,9.542,65.95,8.81,63.116,8.81
	c-3.398,0-6.404,1.001-9.009,3.007c-2.605,2.002-4.271,4.996-5,8.974l-0.122,1.154l-0.121,1.364c0,3.012,0.997,5.294,2.995,6.843
	c0.758,0.594,1.589,1.066,2.495,1.43c2.602-1.619,8.629-4.752,16.701-5.07C72.242,24.776,73.04,22.712,73.401,20.283 M63.845,24.083
	c-0.784,1.595-1.984,2.395-3.603,2.395c-1.888,0-2.835-1.252-2.835-3.761c0.295-2.277,0.755-4.158,1.375-5.643
	c0.73-1.565,1.932-2.347,3.606-2.347c1.756,0,2.631,1.354,2.631,4.059C65.019,20.723,64.629,22.488,63.845,24.083"/>
<path fill="#FFFFFF" d="M121.5,5.5h1v2h-3v-5h3v2h-1V5.5z M120.5,4.5h1v-1h-1V4.5z M121.5,6.5v-1h-1v1H121.5z"/>
<path fill="#FFFFFF" d="M124.5,5.5v1h2v1h-3v-5h3v1h-2v1h2v1H124.5z"/>
<path fill="#FFFFFF" d="M130.5,2.5v1h-1v4h-1v-4h-1v-1H130.5z"/>
<path fill="#FFFFFF" d="M131.5,7.5v-5h3v5h-1v-2h-1v2H131.5z M132.5,4.5h1v-1h-1V4.5z"/>
<path fill="#FFFFFF" d="M124.244,22.134l-4.047-2.836c0,0-8.459,17.374-28.42,13.706c-1.965-0.363-4.033-0.916-6.221-1.722
	c-0.863-0.32-1.707-0.599-2.541-0.853c-2.873-0.882-5.574-1.401-8.118-1.644c-2.005-0.191-3.905-0.202-5.711-0.069
	c-4.762,0.359-8.824,1.743-12.229,3.572c-0.687,0.373-1.356,0.75-1.988,1.153c-7.849,4.98-11.556,12.027-11.556,12.027
	s13.09-8.32,41.842-2.208C111.949,48.94,124.244,22.134,124.244,22.134"/>
<path fill="#F6921E" d="M47.016,42.322c0,0,10.345-13.563,26.241-12.142c0,0-6.897,1.577-10.347,3.939c0,0,5.25-0.631,9.147,1.104
	l-3.598,0.789c0,0,2.698,0.787,3.749,1.891l-1.801,0.469c0,0,0.9,0.634,1.801,1.739C72.21,40.112,60.21,37.586,47.016,42.322"/>
</svg>
